<?xml version="1.0" encoding="UTF-8" standalone="no"?>
<!DOCTYPE svg PUBLIC "-//W3C//DTD SVG 1.1//EN"
 "http://www.w3.org/Graphics/SVG/1.1/DTD/svg11.dtd">
<!-- Generated by graphviz version 4.0.0 (20220529.0937)
 -->
<!-- Pages: 1 -->
<svg width="606pt" height="371pt"
 viewBox="0.00 0.00 605.78 370.82" xmlns="http://www.w3.org/2000/svg" xmlns:xlink="http://www.w3.org/1999/xlink">
<g id="graph0" class="graph" transform="scale(1 1) rotate(0) translate(4 366.82)">
<polygon fill="white" stroke="transparent" points="-4,4 -4,-366.82 601.78,-366.82 601.78,4 -4,4"/>
<!-- Line1 -->
<g id="node1" class="node">
<title>Line1</title>
<polygon fill="lightgray" stroke="black" points="573.08,-107.93 536.08,-107.93 536.08,-89.93 573.08,-89.93 573.08,-107.93"/>
<text text-anchor="middle" x="554.58" y="-96.73" font-family="Times New Roman,serif" font-size="9.00">Line1</text>
</g>
<!-- W -->
<g id="node9" class="node">
<title>W</title>
<ellipse fill="lightblue" stroke="black" cx="507.58" cy="-17.68" rx="17.86" ry="17.86"/>
<text text-anchor="middle" x="507.58" y="-15.48" font-family="Times New Roman,serif" font-size="9.00">W</text>
</g>
<!-- Line1&#45;&gt;W -->
<g id="edge9" class="edge">
<title>Line1&#45;&gt;W</title>
<path fill="none" stroke="red" stroke-width="0.31" stroke-dasharray="1,5" d="M549.72,-89.75C543.14,-78.64 531.09,-58.33 521.56,-42.26"/>
<polygon fill="red" stroke="red" stroke-width="0.31" points="524.41,-40.2 516.3,-33.39 518.39,-43.77 524.41,-40.2"/>
</g>
<!-- Line2 -->
<g id="node2" class="node">
<title>Line2</title>
<polygon fill="lightgray" stroke="black" points="190.08,-362.82 153.08,-362.82 153.08,-344.82 190.08,-344.82 190.08,-362.82"/>
<text text-anchor="middle" x="171.58" y="-351.62" font-family="Times New Roman,serif" font-size="9.00">Line2</text>
</g>
<!-- 66 -->
<g id="node11" class="node">
<title>66</title>
<ellipse fill="white" stroke="black" cx="171.58" cy="-281.24" rx="18.27" ry="18.27"/>
<text text-anchor="middle" x="171.58" y="-279.04" font-family="Times New Roman,serif" font-size="9.00">66</text>
</g>
<!-- Line2&#45;&gt;66 -->
<g id="edge1" class="edge">
<title>Line2&#45;&gt;66</title>
<path fill="none" stroke="green" stroke-width="1.8" d="M171.58,-344.72C171.58,-336.18 171.58,-322.24 171.58,-309.7"/>
<polygon fill="green" stroke="green" stroke-width="1.8" points="175.08,-309.63 171.58,-299.63 168.08,-309.63 175.08,-309.63"/>
</g>
<!-- Line3 -->
<g id="node3" class="node">
<title>Line3</title>
<polygon fill="lightgray" stroke="black" points="375.08,-362.82 338.08,-362.82 338.08,-344.82 375.08,-344.82 375.08,-362.82"/>
<text text-anchor="middle" x="356.58" y="-351.62" font-family="Times New Roman,serif" font-size="9.00">Line3</text>
</g>
<!-- Line4 -->
<g id="node4" class="node">
<title>Line4</title>
<polygon fill="lightgray" stroke="black" points="320.08,-362.82 283.08,-362.82 283.08,-344.82 320.08,-344.82 320.08,-362.82"/>
<text text-anchor="middle" x="301.58" y="-351.62" font-family="Times New Roman,serif" font-size="9.00">Line4</text>
</g>
<!-- Line4&#45;&gt;W -->
<g id="edge6" class="edge">
<title>Line4&#45;&gt;W</title>
<path fill="none" stroke="green" stroke-width="0.88" d="M320.25,-347.46C323.36,-346.57 326.56,-345.66 329.58,-344.82 387.72,-328.52 407.77,-338.09 460.58,-308.82 512.89,-279.82 528.99,-269.06 559.58,-217.66 593.24,-161.1 612.93,-129.76 582.58,-71.36 572.24,-51.46 550.56,-37.51 533.16,-28.98"/>
<polygon fill="green" stroke="green" stroke-width="0.88" points="534.58,-25.78 524.03,-24.8 531.66,-32.15 534.58,-25.78"/>
</g>
<!-- Line4&#45;&gt;66 -->
<g id="edge5" class="edge">
<title>Line4&#45;&gt;66</title>
<path fill="none" stroke="red" stroke-width="2.43" d="M286.66,-344.72C264.69,-332.79 223.33,-310.34 196.64,-295.85"/>
<polygon fill="red" stroke="red" stroke-width="2.43" points="197.99,-292.6 187.53,-290.9 194.65,-298.75 197.99,-292.6"/>
</g>
<!-- 40724 -->
<g id="node15" class="node">
<title>40724</title>
<ellipse fill="white" stroke="black" cx="301.58" cy="-281.24" rx="27.65" ry="27.65"/>
<text text-anchor="middle" x="301.58" y="-279.04" font-family="Times New Roman,serif" font-size="9.00">40724</text>
</g>
<!-- Line4&#45;&gt;40724 -->
<g id="edge8" class="edge">
<title>Line4&#45;&gt;40724</title>
<path fill="none" stroke="green" stroke-width="0.15" stroke-dasharray="1,5" d="M301.58,-344.72C301.58,-338.27 301.58,-328.75 301.58,-319.07"/>
<polygon fill="green" stroke="green" stroke-width="0.15" points="305.08,-319.05 301.58,-309.05 298.08,-319.05 305.08,-319.05"/>
</g>
<!-- Line5 -->
<g id="node5" class="node">
<title>Line5</title>
<polygon fill="lightgray" stroke="black" points="348.08,-199.09 311.08,-199.09 311.08,-181.09 348.08,-181.09 348.08,-199.09"/>
<text text-anchor="middle" x="329.58" y="-187.89" font-family="Times New Roman,serif" font-size="9.00">Line5</text>
</g>
<!-- 44433 -->
<g id="node13" class="node">
<title>44433</title>
<ellipse fill="white" stroke="black" cx="329.58" cy="-98.93" rx="27.65" ry="27.65"/>
<text text-anchor="middle" x="329.58" y="-96.73" font-family="Times New Roman,serif" font-size="9.00">44433</text>
</g>
<!-- Line5&#45;&gt;44433 -->
<g id="edge18" class="edge">
<title>Line5&#45;&gt;44433</title>
<path fill="none" stroke="red" stroke-width="0.25" d="M329.58,-180.86C329.58,-170.89 329.58,-153.41 329.58,-137.24"/>
<polygon fill="red" stroke="red" stroke-width="0.25" points="333.08,-136.89 329.58,-126.89 326.08,-136.89 333.08,-136.89"/>
</g>
<!-- Speed -->
<g id="node6" class="node">
<title>Speed</title>
<polygon fill="lightgray" stroke="black" points="451.58,-290.24 413.58,-290.24 413.58,-272.24 451.58,-272.24 451.58,-290.24"/>
<text text-anchor="middle" x="432.58" y="-279.04" font-family="Times New Roman,serif" font-size="9.00">Speed</text>
</g>
<!-- S -->
<g id="node10" class="node">
<title>S</title>
<ellipse fill="lightblue" stroke="black" cx="503.58" cy="-98.93" rx="14.7" ry="14.7"/>
<text text-anchor="middle" x="503.58" y="-96.73" font-family="Times New Roman,serif" font-size="9.00">S</text>
</g>
<!-- Speed&#45;&gt;S -->
<g id="edge4" class="edge">
<title>Speed&#45;&gt;S</title>
<path fill="none" stroke="green" stroke-width="0.5" d="M451.95,-275.65C477.93,-268.33 523.03,-251.28 542.58,-217.66 561.38,-185.34 536.72,-142.69 518.92,-118.6"/>
<polygon fill="green" stroke="green" stroke-width="0.5" points="521.64,-116.4 512.76,-110.62 516.1,-120.67 521.64,-116.4"/>
</g>
<!-- 44641 -->
<g id="node12" class="node">
<title>44641</title>
<ellipse fill="white" stroke="black" cx="505.58" cy="-190.09" rx="27.65" ry="27.65"/>
<text text-anchor="middle" x="505.58" y="-187.89" font-family="Times New Roman,serif" font-size="9.00">44641</text>
</g>
<!-- Speed&#45;&gt;44641 -->
<g id="edge13" class="edge">
<title>Speed&#45;&gt;44641</title>
<path fill="none" stroke="red" stroke-width="0.39" d="M439.31,-272.01C448.93,-260.28 467.06,-238.13 481.92,-219.97"/>
<polygon fill="red" stroke="red" stroke-width="0.39" points="484.86,-221.92 488.48,-211.96 479.44,-217.48 484.86,-221.92"/>
</g>
<!-- Speed&#45;&gt;44433 -->
<g id="edge11" class="edge">
<title>Speed&#45;&gt;44433</title>
<path fill="none" stroke="red" stroke-width="0.24" stroke-dasharray="1,5" d="M427.73,-272.18C420.6,-260.29 406.91,-237.35 395.58,-217.66 379.06,-188.98 360.68,-156.11 347.52,-132.4"/>
<polygon fill="red" stroke="red" stroke-width="0.24" points="350.48,-130.53 342.57,-123.48 344.36,-133.92 350.48,-130.53"/>
</g>
<!-- 40312 -->
<g id="node18" class="node">
<title>40312</title>
<ellipse fill="white" stroke="black" cx="190.58" cy="-98.93" rx="27.65" ry="27.65"/>
<text text-anchor="middle" x="190.58" y="-96.73" font-family="Times New Roman,serif" font-size="9.00">40312</text>
</g>
<!-- Speed&#45;&gt;40312 -->
<g id="edge15" class="edge">
<title>Speed&#45;&gt;40312</title>
<path fill="none" stroke="red" stroke-width="0.24" d="M413.41,-274.88C363.95,-260.98 235.39,-224.38 228.58,-217.66 206.93,-196.33 197.6,-162.61 193.59,-136.72"/>
<polygon fill="red" stroke="red" stroke-width="0.24" points="197.02,-135.95 192.22,-126.51 190.08,-136.89 197.02,-135.95"/>
</g>
<!-- 41786 -->
<g id="node19" class="node">
<title>41786</title>
<ellipse fill="white" stroke="black" cx="432.58" cy="-190.09" rx="27.65" ry="27.65"/>
<text text-anchor="middle" x="432.58" y="-187.89" font-family="Times New Roman,serif" font-size="9.00">41786</text>
</g>
<!-- Speed&#45;&gt;41786 -->
<g id="edge10" class="edge">
<title>Speed&#45;&gt;41786</title>
<path fill="none" stroke="green" stroke-width="0.24" d="M432.58,-272.01C432.58,-262.04 432.58,-244.56 432.58,-228.39"/>
<polygon fill="green" stroke="green" stroke-width="0.24" points="436.08,-228.05 432.58,-218.05 429.08,-228.05 436.08,-228.05"/>
</g>
<!-- A -->
<g id="node7" class="node">
<title>A</title>
<ellipse fill="lightblue" stroke="black" cx="127.58" cy="-190.09" rx="16.03" ry="16.03"/>
<text text-anchor="middle" x="127.58" y="-187.89" font-family="Times New Roman,serif" font-size="9.00">A</text>
</g>
<!-- D -->
<g id="node8" class="node">
<title>D</title>
<ellipse fill="lightblue" stroke="black" cx="83.58" cy="-17.68" rx="16.03" ry="16.03"/>
<text text-anchor="middle" x="83.58" y="-15.48" font-family="Times New Roman,serif" font-size="9.00">D</text>
</g>
<!-- 66&#45;&gt;A -->
<g id="edge2" class="edge">
<title>66&#45;&gt;A</title>
<path fill="none" stroke="red" stroke-width="0.39" d="M163.71,-264.3C156.83,-250.37 146.76,-229.95 138.99,-214.22"/>
<polygon fill="red" stroke="red" stroke-width="0.39" points="142.07,-212.55 134.51,-205.13 135.79,-215.64 142.07,-212.55"/>
</g>
<!-- 66&#45;&gt;D -->
<g id="edge3" class="edge">
<title>66&#45;&gt;D</title>
<path fill="none" stroke="green" stroke-width="0.98" d="M156.15,-271.18C139.74,-260.62 114.54,-241.52 102.58,-217.66 74.08,-160.81 76.64,-83.38 80.4,-43.97"/>
<polygon fill="green" stroke="green" stroke-width="0.98" points="83.9,-44.22 81.47,-33.91 76.94,-43.48 83.9,-44.22"/>
</g>
<!-- 66&#45;&gt;44641 -->
<g id="edge20" class="edge">
<title>66&#45;&gt;44641</title>
<path fill="none" stroke="green" stroke-width="0.3" d="M188.92,-274.7C207.49,-268.9 237.9,-259.8 264.58,-253.66 354.73,-232.93 384.55,-254.1 469.58,-217.66 471.72,-216.74 473.86,-215.67 475.97,-214.5"/>
<polygon fill="green" stroke="green" stroke-width="0.3" points="478.3,-217.16 484.87,-208.85 474.55,-211.25 478.3,-217.16"/>
</g>
<!-- 45811 -->
<g id="node14" class="node">
<title>45811</title>
<ellipse fill="white" stroke="black" cx="265.58" cy="-190.09" rx="27.65" ry="27.65"/>
<text text-anchor="middle" x="265.58" y="-187.89" font-family="Times New Roman,serif" font-size="9.00">45811</text>
</g>
<!-- 66&#45;&gt;45811 -->
<g id="edge16" class="edge">
<title>66&#45;&gt;45811</title>
<path fill="none" stroke="green" stroke-width="0.17" d="M184.65,-267.84C198.51,-254.7 220.8,-233.56 238.48,-216.79"/>
<polygon fill="green" stroke="green" stroke-width="0.17" points="240.89,-219.33 245.74,-209.91 236.07,-214.25 240.89,-219.33"/>
</g>
<!-- 46102 -->
<g id="node16" class="node">
<title>46102</title>
<ellipse fill="white" stroke="black" cx="27.58" cy="-98.93" rx="27.65" ry="27.65"/>
<text text-anchor="middle" x="27.58" y="-96.73" font-family="Times New Roman,serif" font-size="9.00">46102</text>
</g>
<!-- 66&#45;&gt;46102 -->
<g id="edge23" class="edge">
<title>66&#45;&gt;46102</title>
<path fill="none" stroke="red" stroke-width="0.31" d="M154.28,-273.89C131.74,-264.77 92.48,-245.9 69.58,-217.66 50.47,-194.11 39.71,-161.19 33.87,-136.15"/>
<polygon fill="red" stroke="red" stroke-width="0.31" points="37.28,-135.32 31.73,-126.29 30.44,-136.81 37.28,-135.32"/>
</g>
<!-- 66&#45;&gt;40312 -->
<g id="edge7" class="edge">
<title>66&#45;&gt;40312</title>
<path fill="none" stroke="red" stroke-width="0.18" d="M173.43,-262.62C176.49,-233.63 182.64,-175.24 186.68,-136.87"/>
<polygon fill="red" stroke="red" stroke-width="0.18" points="190.2,-136.94 187.76,-126.62 183.24,-136.2 190.2,-136.94"/>
</g>
<!-- 44641&#45;&gt;S -->
<g id="edge25" class="edge">
<title>44641&#45;&gt;S</title>
<path fill="none" stroke="red" stroke-width="0.31" d="M504.98,-162.34C504.7,-150.16 504.38,-135.87 504.12,-124.03"/>
<polygon fill="red" stroke="red" stroke-width="0.31" points="507.62,-123.9 503.89,-113.98 500.62,-124.06 507.62,-123.9"/>
</g>
<!-- 45811&#45;&gt;44433 -->
<g id="edge19" class="edge">
<title>45811&#45;&gt;44433</title>
<path fill="none" stroke="red" stroke-width="0.23" stroke-dasharray="1,5" d="M281.4,-167.05C289.38,-155.93 299.19,-142.27 307.86,-130.18"/>
<polygon fill="red" stroke="red" stroke-width="0.23" points="310.95,-131.88 313.94,-121.72 305.26,-127.8 310.95,-131.88"/>
</g>
<!-- 45975 -->
<g id="node17" class="node">
<title>45975</title>
<ellipse fill="white" stroke="black" cx="404.58" cy="-98.93" rx="27.65" ry="27.65"/>
<text text-anchor="middle" x="404.58" y="-96.73" font-family="Times New Roman,serif" font-size="9.00">45975</text>
</g>
<!-- 45811&#45;&gt;45975 -->
<g id="edge26" class="edge">
<title>45811&#45;&gt;45975</title>
<path fill="none" stroke="green" stroke-width="0.14" d="M287.21,-172.94C292.19,-169.4 297.51,-165.74 302.58,-162.51 330.09,-144.96 338.95,-143.88 366.58,-126.51 369.15,-124.89 371.79,-123.17 374.43,-121.41"/>
<polygon fill="green" stroke="green" stroke-width="0.14" points="376.43,-124.29 382.72,-115.76 372.49,-118.5 376.43,-124.29"/>
</g>
<!-- 45811&#45;&gt;40312 -->
<g id="edge17" class="edge">
<title>45811&#45;&gt;40312</title>
<path fill="none" stroke="green" stroke-width="0.47" stroke-dasharray="1,5" d="M248.18,-168.41C238.15,-156.48 225.39,-141.31 214.43,-128.29"/>
<polygon fill="green" stroke="green" stroke-width="0.47" points="216.99,-125.9 207.88,-120.5 211.64,-130.4 216.99,-125.9"/>
</g>
<!-- 46102&#45;&gt;D -->
<g id="edge24" class="edge">
<title>46102&#45;&gt;D</title>
<path fill="none" stroke="green" stroke-width="0.95" d="M43.18,-75.86C51.14,-64.58 60.79,-50.93 68.66,-39.79"/>
<polygon fill="green" stroke="green" stroke-width="0.95" points="71.61,-41.68 74.52,-31.49 65.89,-37.64 71.61,-41.68"/>
</g>
<!-- 45975&#45;&gt;W -->
<g id="edge22" class="edge">
<title>45975&#45;&gt;W</title>
<path fill="none" stroke="red" stroke-width="0.24" d="M426.42,-81.12C443.98,-67.61 468.52,-48.73 486,-35.28"/>
<polygon fill="red" stroke="red" stroke-width="0.24" points="488.17,-38.03 493.96,-29.16 483.9,-32.48 488.17,-38.03"/>
</g>
<!-- 40312&#45;&gt;D -->
<g id="edge12" class="edge">
<title>40312&#45;&gt;D</title>
<path fill="none" stroke="green" stroke-width="0.31" d="M168.67,-81.7C149.88,-67.78 122.99,-47.87 104.49,-34.17"/>
<polygon fill="green" stroke="green" stroke-width="0.31" points="106.52,-31.31 96.4,-28.17 102.35,-36.94 106.52,-31.31"/>
</g>
<!-- 41786&#45;&gt;W -->
<g id="edge14" class="edge">
<title>41786&#45;&gt;W</title>
<path fill="none" stroke="red" stroke-width="0.42" d="M441.71,-163.95C450.66,-139.88 465.04,-102.7 479.58,-71.36 483.99,-61.83 489.3,-51.59 494.1,-42.7"/>
<polygon fill="red" stroke="red" stroke-width="0.42" points="497.31,-44.12 499.05,-33.67 491.17,-40.76 497.31,-44.12"/>
</g>
<!-- 41786&#45;&gt;45975 -->
<g id="edge21" class="edge">
<title>41786&#45;&gt;45975</title>
<path fill="none" stroke="green" stroke-width="0.27" d="M424.48,-163.3C421.7,-154.44 418.54,-144.38 415.56,-134.92"/>
<polygon fill="green" stroke="green" stroke-width="0.27" points="418.9,-133.85 412.56,-125.35 412.22,-135.94 418.9,-133.85"/>
</g>
</g>
</svg>
